<svg width="46" height="46" viewBox="0 0 46 46" fill="none" xmlns="http://www.w3.org/2000/svg">
<path d="M39.1284 6.76724C35.3726 2.9813 30.4156 0.62631 25.1119 0.108287C19.8083 -0.409736 14.4903 0.941668 10.0749 3.92952C5.6595 6.91736 2.42333 11.3544 0.92432 16.4757C-0.574686 21.597 -0.242591 27.0816 1.86335 31.984C2.08285 32.4396 2.15487 32.9525 2.06936 33.4511L0.0550368 43.1481C-0.0225693 43.5199 -0.00672199 43.9052 0.101155 44.2693C0.209031 44.6334 0.405557 44.965 0.673069 45.2342C0.892366 45.4523 1.15347 45.6236 1.44065 45.7378C1.72783 45.8521 2.03514 45.9069 2.34404 45.899H2.80185L12.5988 43.9275C13.0967 43.8676 13.6017 43.9387 14.0638 44.1339C18.9588 46.243 24.4352 46.5755 29.5489 45.0743C34.6625 43.573 39.093 40.332 42.0763 35.91C45.0597 31.488 46.4091 26.1621 45.8919 20.8505C45.3746 15.5389 43.0232 10.5745 39.2429 6.81309L39.1284 6.76724ZM13.7891 25.2672C13.3364 25.2672 12.8938 25.1327 12.5174 24.8808C12.141 24.6289 11.8476 24.2709 11.6743 23.852C11.5011 23.4331 11.4557 22.9722 11.5441 22.5275C11.6324 22.0828 11.8504 21.6743 12.1705 21.3537C12.4906 21.0331 12.8985 20.8148 13.3425 20.7263C13.7865 20.6379 14.2468 20.6833 14.6651 20.8568C15.0833 21.0303 15.4408 21.3241 15.6923 21.7011C15.9438 22.0781 16.0781 22.5213 16.0781 22.9747C16.0781 23.5827 15.8369 24.1658 15.4077 24.5957C14.9784 25.0256 14.3962 25.2672 13.7891 25.2672V25.2672ZM22.9451 25.2672C22.4924 25.2672 22.0498 25.1327 21.6734 24.8808C21.297 24.6289 21.0036 24.2709 20.8304 23.852C20.6571 23.4331 20.6118 22.9722 20.7001 22.5275C20.7884 22.0828 21.0064 21.6743 21.3265 21.3537C21.6467 21.0331 22.0545 20.8148 22.4986 20.7263C22.9426 20.6379 23.4028 20.6833 23.8211 20.8568C24.2393 21.0303 24.5968 21.3241 24.8484 21.7011C25.0999 22.0781 25.2341 22.5213 25.2341 22.9747C25.2341 23.5827 24.993 24.1658 24.5637 24.5957C24.1344 25.0256 23.5522 25.2672 22.9451 25.2672ZM32.1012 25.2672C31.6484 25.2672 31.2059 25.1327 30.8294 24.8808C30.453 24.6289 30.1596 24.2709 29.9864 23.852C29.8131 23.4331 29.7678 22.9722 29.8561 22.5275C29.9444 22.0828 30.1625 21.6743 30.4826 21.3537C30.8027 21.0331 31.2106 20.8148 31.6546 20.7263C32.0986 20.6379 32.5589 20.6833 32.9771 20.8568C33.3954 21.0303 33.7529 21.3241 34.0044 21.7011C34.2559 22.0781 34.3902 22.5213 34.3902 22.9747C34.3902 23.5827 34.149 24.1658 33.7197 24.5957C33.2905 25.0256 32.7082 25.2672 32.1012 25.2672Z" fill="#5F35F5"/>
</svg>
